<?xml version="1.0" encoding="UTF-8"?>
<svg version="1.1" viewBox="0 0 1600 491" width="1280" height="1280" xmlns="http://www.w3.org/2000/svg">
<path transform="translate(407,301)" d="m0 0h23l16 4 14 7 12 11 9 14 1 2 1-35h49l1 4v14l5-5 9-8 12-6 8-2h18l13 4 9 6 5 5 4 5 4 8 4 10 7-11 9-10 11-8 13-6 7-2 8-1h19l15 3 10 4 10 7 8 7 7 10 4 7 1-35h50l1 25 6-11 9-9 12-6 4-1h13v17l13-10 13-6 11-2h16l10 2 12 5 10 8 3 3 1-15h50v36h2l2-6 11-14 13-10 13-6 14-3h21l15 3 16 8 10 9 6 7 7 12 3-4 10-14 12-10 16-8 14-3h22l14 3 11 5 9 6 11 11 8 14 5 15 2 14v19l-1 1h-94l6 12 7 6 8 3 12 1 10-2 10-5 8-7 6 4 13 11 9 7-1 4-9 9-10 7-13 6-11 3-8 1h-19l-16-3-12-5-10-6-10-9-8-10-7-15-2-8v-4h-81l-2-1 3 8 4 6 6 5 7 3 6 1h8l12-3 11-7 3-3 4 1 14 11 11 10-2 4-8 8-14 9-13 5-8 2-9 1h-15l-14-2-12-4-13-7-12-11-8-11-2-2-2 21-4 15-6 12-9 10-9 7-13 6-18 4-9 1h-23l-17-2-18-4-19-7-5-3 1-5 14-28 20 8 11 3 8 1h18l12-3 8-5 6-8 3-13v-8l-10 9-10 6-15 4h-16l-10-2-13-5-10-7-9-9-8-14-4-14-1-9v-12l1-6-14 7-5 5-5 8-4 14-1 56-50 1-1-23-10 10-11 7-11 5-11 3-11 1h-10l-13-1-17-5-11-6-10-8-8-9-4-6v-2h-2l1 33-1 1h-48l-1-1-1-82-3-9-8-7-3-1h-11l-8 4-4 6-2 7-1 8-1 75h-49v-23l-16 14-16 8-11 3-9 1h-19l-16-3-12-5-12-7-12-12-8-14-5-15-1-6v-23l4-17 8-16 9-11 10-8 16-8zm5 37-8 4-6 7-4 9v5h48l-1-7-5-10-7-6-5-2zm275-1-8 2-6 4-6 7-4 11v2h49l-1-9-6-10-10-6zm363 0-9 3-7 6-5 10-1 7h49l-2-9-4-8-7-6-5-2zm126 1-8 5-6 7-4 11v2h49l-2-10-6-9-5-4-5-2zm-269 1-10 2-8 5-6 7-3 9v11l4 10 7 7 9 4 4 1h10l9-3 9-6 5-9 1-4v-12l-4-9-7-8-9-4zm-242 49-1 2 6 12 9 7 12 3h9l13-4 11-8 4-1 10 9 11 9 4 2v-31zm-271 1 4 10 8 8 10 4 10 1 12-2 12-7 4-4 5 1 11 9 10 9 3 1v-30z" fill="#943BF9"/>
<path transform="translate(407,301)" d="m0 0h23l16 4 14 7 12 11 9 14 1 2 1-35h49l1 4v14l5-5 9-8 12-6 8-2h18l13 4 9 6 5 5 4 5 4 8 4 10 7-11 9-10 11-8 13-6 9-2 7 3v2h3l2 4 3 3-2 14h-3l1 5-4 1-3 4v3l-7 6-4 8-3 8h17l-2 2 2 4h2l1 7-6 7-5 5-7 1 4 10 4 5 8 5 4 2 2 2 6 2 1 3-3 5-2 9-5 7-10 5-7 2-13-5-11-7-10-9-8-11v-2h-2l1 33-1 1h-48l-1-1-1-82-3-9-8-7-3-1h-11l-8 4-4 6-2 7-1 8-1 75h-49v-23l-16 14-16 8-11 3-9 1h-19l-16-3-12-5-12-7-12-12-8-14-5-15-1-6v-23l4-17 8-16 9-11 10-8 16-8zm5 37-8 4-6 7-4 9v5h48l-1-7-5-10-7-6-5-2zm-18 51 4 10 8 8 10 4 10 1 12-2 12-7 4-4 5 1 11 9 10 9 3 1v-30z" fill="#1ED7FD"/>
<path transform="translate(786,3)" d="m0 0h21l20 4 16 6 16 10 13 11 11 13 9 15 6 16 3 13 1 8v19l-2 14-6 18-9 17-8 10-9 10-9 7-10-3-10-6-11-11-7-11 1-8 4-13 6-33 3-26 1-18-2-20-2-8-4-6-5-2-7 1-5 5-6 10-7 21-2 14v29l3 21 5 19 4 12-6 10-5 3-7 1-9-3-10-9-4-8 5-19 4-29v-45l-2-7-4-4-2-1h-7l-6 5-5 11-4 18-1 9v25l3 18 5 15 2 7-4 5-7 4v6l9-2 6-4h3l6 8 9 7 9 4h12l8-5h2l2-4 3-4h2l8 11 7 7 12 7 5 2v2l-16 7-16 4-8 1h-23l-20-4-17-7-10-6-13-10-9-9-10-14-8-16-5-16-2-12v-22l3-17 7-19 9-15 12-14 13-11 15-9 19-7z" fill="#5C89FC"/>
<path transform="translate(679,301)" d="m0 0h19l15 3 10 4 10 7 8 7 7 10 4 7 1-35h50l1 25 6-11 9-9 12-6 4-1h13v17l13-10 13-6 11-2h16l10 2 12 5 10 8 3 4-4 3 2 7-1 5-2 4-8-1 1 3-3 1-8-2-13 1-10 5-6 7-3 9v11l4 10 8 7 11 4h10l9-3 6-4 2 1-9 8 2 4h3l6-1 1 3h2v7l2 4-11 10-10 6-15 4h-16l-10-2-13-5-10-7-9-9-8-14-4-14-1-9v-12l1-6-14 7-5 5-5 8-4 14-1 56-50 1-1-23-10 10-11 7-11 5-11 3-11 1h-10l-13-1-7-2 3-2 9-4 4-1 2-5 2-2 3-11 2-4-2-1v-2l-5-1-2-2h16l13-4 11-8 4-1 10 9 11 9 4 3v-31h-81v-3l8-6 2-3v-7h-2l-2-3-11-1v-1l13-1h32l-2-9-6-10-9-5-8-1-11 2 2-5 4-3 2 1-1-5h3v-8l1-8-3-1-1-4h-3v-2l-4-1-3-2z" fill="#5B88FC"/>
<path transform="translate(567,301)" d="m0 0h18l13 4 9 6 5 5 4 5 4 8 4 10 7-11 9-10 11-8 13-6 9-2 7 3v2h3l2 4 3 3-2 14h-3l1 5-4 1-3 4v3l-7 6-4 8-3 8h17l-2 2 2 4h2l1 7-6 7-5 5-7 1 4 10 4 5 8 5 4 2 2 2 6 2 1 3-3 5-2 9-5 7-10 5-7 2-13-5-11-7-10-9-8-11v-2h-2l1 33-1 1h-48l-1-1-1-82-3-9-8-7-10-4-2-4 4-6 3-5 3-9-3-5-7-3 2-4 7-2v-2z" fill="#38B7FD"/>
<path transform="translate(811,5)" d="m0 0h8l17 5 14 7 13 9 11 10 11 14 7 12 6 16 3 13 1 8v19l-2 14-6 18-9 17-8 10-9 10-9 7-10-3-10-6-11-11-7-11 1-8 4-13 6-33 3-26 1-18-2-20-2-8-4-6-5-2-7 1-5 2-8 12-1-3 1-13-1-6-2-1 7-9 4-3z" fill="#7365FB"/>
<path transform="translate(885,301)" d="m0 0h16l10 2 12 5 10 8 3 4-4 3 2 7-1 5-2 4-8-1 1 3-3 1-8-2-13 1-10 5-6 7-3 9v11l4 10 8 7 11 4h10l9-3 6-4 2 1-9 8 2 4h3l6-1 1 3h2v7l2 4-11 10-10 6-15 4h-16l-10-2-13-5-10-7-9-9-8-14-4-14-1-9v-12l1-6-5 2h-5l2-4 4-1 3 1v-7l-3-5v-9l5-5 4-2 7-1 1-2 5-2 3-5 8-6 13-6z" fill="#7365FB"/>
<path transform="translate(401,302)" d="m0 0 16 8 4 4-1 10-2 4h-2v8l-7 2v2l-8 6-6 12h-2v6l11 3 9 7 1 5-6 7-2 1-12 1 6 12 6 6v3h2v2l5 2 6 8 1 5-2 9-3 6-3 3-15 1-9-2-13-7-10-9-7-8-8-16-4-16v-23l4-17 8-16 9-11 10-8 16-8z" fill="#09F8FE"/>
<path transform="translate(671,302)" d="m0 0 9 3v2h3l2 4 3 3-2 14h-3l1 5-4 1-3 4v3l-7 6-4 8-3 8h17l-2 2 2 4h2l1 7-6 7-5 5-7 1 4 10 4 5 8 5 4 2 2 2 6 2 1 3-3 5-2 9-5 7-10 5-7 2-13-5-11-7-10-9-8-11-2-6 1-15 1-6v-18l11-18 1-3-2-1 2-11-3 2v-3h-2l-1 3h-5l1-4 8-11 7-7 11-7 11-5z" fill="#47A4FD"/>
<path transform="translate(877,50)" d="m0 0 9 2 6 10 6 16 3 13 1 8v19l-2 14-6 18-9 17-8 10-5 3h-2v2l-2-1-1-6-2-1v-3l-2-1 1-5 2-38 3-22v-11h2v-8l4 2 2-4-1-6 3-4-2-10-1-11z" fill="#923DF9"/>
<path transform="translate(935,432)" d="m0 0 1 4-6 8-5 5-1 4 6 3h2v3l2 1-3 8 1 10-3 1h-2l-4 1-20 4v2l22-1 6-1 2 2-15 2h-23l-17-2-18-4-19-7-5-3 1-5 14-28 20 8 11 3 8 1h18l12-3 8-5 6-8z" fill="#7365FB"/>
<path transform="translate(1172,301)" d="m0 0h22l14 3 11 5 9 6 11 11 8 14 5 15 2 14v19h-95v-1l34-1 7-2 20-2 2-4 7-6 1-4-5-15-3-8 1-6-3-15-6-3v-2l-4-1-8-5-10-3-16-2-22 1-7 4-1 4-1 9-1 3-4 4h-2l-2 4-7 6-6-1-1-5-2-1 10-14 12-10 16-8z" fill="#BD11F6"/>
<path transform="translate(1160,395)" d="m0 0 4 4 5 6 8 4 10 2 12-1 9-4 9-6 4-3 13 11 10 8 4 3-1 4-9 9-10 7-13 6-11 3-8 1h-19l-6-1v-1l19-2 16-6 6-2-1-8v-7l-4-3-3-1-21-1-7-5v-2h-6l-7-6-4-6z" fill="#BB13F6"/>
<path transform="translate(819,43)" d="m0 0 3 1 3 10v32l-3 24-6 28-2 5-2-1-4-16-3-20v-22l3-19 4-12 5-8z" fill="#7364FB"/>
<path transform="translate(813,173)" d="m0 0h2l8 11 7 7 12 7 5 2v2l-16 7-16 4h-23l4-5h2v-2h2l4-8 3-1 4-8-1-4 2-4-3-3z" fill="#7267FB"/>
<path transform="translate(401,403)" d="m0 0 4 2 1 4h2v2l5 2 6 8 1 5-2 9-3 6-3 3-15 1-7-1 3-5 2-2-1-1v-8l7-8 2-6-2-4z" fill="#0CEFFE"/>
<path transform="translate(765,64)" d="m0 0 2 1v36l-2 25-3 15-2-1-4-16-1-7v-23l3-19 4-9z" fill="#5D8AFC"/>
<path transform="translate(401,302)" d="m0 0 16 8 4 4-1 10-2 4h-2v8l-7 2v2l-9 6 2-4 3-7v-5l-4-3-2-12v-5h-2v-7z" fill="#0DEFFE"/>
<path transform="translate(819,43)" d="m0 0 3 1 3 10v32h-1l-1-27-10 10-5 13v31l2 1 1 8v4l4-2 3-5 3-16 1-13 2-3-1 17-5 26-4 13-2-1-4-16-3-20v-22l3-19 4-12 5-8z" fill="#5F8AFC"/>
<path transform="translate(1113,394)" d="m0 0 5 2 8 12 5 1 5 4v4h2l5 8v2h3l1 9 7 5 3 2-6-1-11-6-12-11-8-11-6-13z" fill="#B915F6"/>
<path transform="translate(1196,340)" d="m0 0h7l11 7 4 7-2 6-5 3h-2v2l-6 3-6 1h-12l-16-3-10-1-2-1v-5l1 4h49l-4-12-6-8z" fill="#BD11F6"/>
<path transform="translate(1153,306)" d="m0 0 2 1-1 2-7 4-1 4-1 9-1 3-4 4h-2l-2 4-7 6-6-1-1-5-2-1 10-14 12-10z" fill="#BC16F6"/>
<path transform="translate(394,364)" d="m0 0 10 3 9 7 1 5-6 7-2 1h-12l1-5 3-4v-7l-1-4-3-1z" fill="#0CF0FF"/>
<path transform="translate(806,82)" d="m0 0h1l1 31 2 1 1 8v4l4-2 3-5 3-16 1-13 2-3-1 17-5 26-4 13-2-1-4-16-3-20v-22z" fill="#658DFC"/>
<path transform="translate(836,302)" d="m0 0h12l-1 13-2 3-4-1-1-7-5-6z" fill="#7267FB"/>
<path transform="translate(832,355)" d="m0 0h1l1 17 2 4 1 13 2 6 2 9-3-4-4-10-2-8-1-9v-12z" fill="#628CFC"/>
<path transform="translate(1160,395)" d="m0 0 4 4 5 6 8 4v1h-7l-7-6-4-6z" fill="#B41CF6"/>
<path transform="translate(917,422)" d="m0 0h2l-2 4-5 3-6 1-1 1h-7l1-2 13-4z" fill="#943BF9"/>
<path transform="translate(1032,303)" d="m0 0h6v2l-9 3-12 3v-2l11-5z" fill="#B125F7"/>
<path transform="translate(813,173)" d="m0 0h2l5 8-5 2-2-2-4-2z" fill="#737FFB"/>
<path transform="translate(377,312)" d="m0 0 2 1h-3zm-3 2 2 1-14 14v-3l8-9z" fill="#4FE9FE"/>
<path transform="translate(841,459)" d="m0 0 1 3-3 6 1 4 6 3-3 1-7-4 1-5z" fill="#5F8BFC"/>
<path transform="translate(851,439)" d="m0 0 5 2 6 3-3 1-8-1-2 1z" fill="#6B8FFC"/>
<path transform="translate(806,106)" d="m0 0h1l1 7 2 1 1 8h-3l-2-7z" fill="#5F8BFC"/>
<path transform="translate(825,352)" d="m0 0 4 1 3 2-5 2h-5l2-4z" fill="#6C6DFB"/>
<path transform="translate(1008,315)" d="m0 0 2 1-12 12-2-1 7-8z" fill="#9366FA"/>
</svg>
